<!-- Generator: Adobe Illustrator 24.0.0, SVG Export Plug-In  -->
<svg version="1.1" xmlns="http://www.w3.org/2000/svg" xmlns:xlink="http://www.w3.org/1999/xlink" x="0px" y="0px" width="485.7px"
	 height="96.4px" viewBox="0 0 485.7 96.4" style="enable-background:new 0 0 485.7 96.4;" xml:space="preserve">
<style type="text/css">
	.st0{fill:#FFFFFF;}
</style>
<defs>
</defs>
<g>
	<g>
		<g>
			<path class="st0" d="M132.8,21.6h7.7v6.1h0.2c4-4.6,10.2-7.5,17-7.5c15.2,0,24.9,11,24.9,27.3c0,16.1-10.3,27.3-24.3,27.3
				c-7.3,0-13.7-2.9-17.7-7.5h-0.2v28h-7.6V21.6z M157.3,27.2c-9.1,0-16.9,7.3-16.9,15.4v9.7c0,8,7.8,15.3,17.5,15.3
				c5.1,0,9.2-1.9,12.3-5.5c3.2-3.7,4.8-8.6,4.8-14.7C175,34.9,168.4,27.2,157.3,27.2z"/>
			<path class="st0" d="M216.5,43.1c10.1-1.7,13.8-3.9,13.8-7.9c0-5-4.5-8.2-11.9-8.2c-8.1,0-13.9,4.5-15,11.8l-7.4-1.2
				c0.7-5.3,3-9.5,7.1-12.7c4.2-3.2,9.3-4.9,15.3-4.9c12.4,0,19.9,6.6,19.9,16.9v36.3h-7.3v-6.4h-0.2c-3,5-9.6,7.9-17.7,7.9
				c-10.9,0-17.8-6-17.8-15.4C195.3,50.4,201.6,45.6,216.5,43.1z M230.5,44.2h-0.2c-1.3,2.2-5.3,4-12.2,5.3
				c-10.8,2-15.1,4.8-15.1,9.9c0,5.6,3.4,8.1,11.5,8.1c8.3,0,16-6.1,16-12.3V44.2z"/>
			<path class="st0" d="M254.8,21.6h7.7v6.1h0.2c4-4.6,10.2-7.5,17-7.5c15.2,0,24.9,11,24.9,27.3c0,16.1-10.3,27.3-24.3,27.3
				c-7.3,0-13.7-2.9-17.7-7.5h-0.2v28h-7.6V21.6z M279.3,27.2c-9.1,0-16.9,7.3-16.9,15.4v9.7c0,8,7.8,15.3,17.5,15.3
				c5.1,0,9.2-1.9,12.3-5.5c3.2-3.7,4.8-8.6,4.8-14.7C297,34.9,290.4,27.2,279.3,27.2z"/>
			<path class="st0" d="M338.5,43.1c10.1-1.7,13.8-3.9,13.8-7.9c0-5-4.5-8.2-11.9-8.2c-8.1,0-13.9,4.5-15,11.8l-7.4-1.2
				c0.7-5.3,3-9.5,7.1-12.7c4.2-3.2,9.3-4.9,15.3-4.9c12.4,0,19.9,6.6,19.9,16.9v36.3h-7.3v-6.4h-0.2c-3,5-9.6,7.9-17.7,7.9
				c-10.9,0-17.8-6-17.8-15.4C317.3,50.4,323.6,45.6,338.5,43.1z M352.5,44.2h-0.2c-1.3,2.2-5.3,4-12.2,5.3
				c-10.8,2-15.1,4.8-15.1,9.9c0,5.6,3.4,8.1,11.5,8.1c8.3,0,16-6.1,16-12.3V44.2z"/>
			<path class="st0" d="M377.4,2h7.6v44.1h0.2l28.3-24.6h11.9l-24.8,21.2l25.9,30.5h-10.4l-21.3-25.7h-0.2L385,56v17.3h-7.6V2z"/>
			<path class="st0" d="M485.7,66.2v7.1h-48.8v-7.1h20.6V28.7h-19.6v-7.1h27.2v44.6H485.7z M456.7,4h9.2v9.1h-9.2V4z"/>
		</g>
	</g>
	<g>
		<g>
			<g>
				<g>
					<g>
						<path class="st0" d="M39,23.6h12.8v12.6H39V23.6z"/>
					</g>
				</g>
			</g>
			<g>
				<g>
					<path class="st0" d="M20,96.4C7.1,83.5,0,66.4,0,48.2C0,30,7.1,12.9,20,0l5.1,5.1C13.5,16.6,7.2,31.9,7.2,48.2
						c0,16.3,6.3,31.6,17.9,43.1L20,96.4z"/>
				</g>
			</g>
		</g>
		<g>
			<polygon class="st0" points="74.6,21.9 70.8,28.3 104.2,48.4 70.8,68.4 74.6,74.8 112.8,51.8 112.8,44.9 			"/>
		</g>
	</g>
</g>
</svg>
